<svg width="168" height="27" viewBox="0 0 168 27" fill="none" xmlns="http://www.w3.org/2000/svg">
<path d="M6.388 12.14H18.484V16.82H6.388V12.14ZM6.82 26H0.988V0.799998H20.032V5.48H6.82V26ZM19.6487 26L30.8807 0.799998H36.6407L47.9087 26H41.7887L32.5727 3.752H34.8767L25.6247 26H19.6487ZM25.2647 20.6L26.8127 16.172H39.7727L41.3567 20.6H25.2647ZM58.8032 26.432C56.7872 26.432 54.8552 26.168 53.0072 25.64C51.1592 25.088 49.6712 24.38 48.5432 23.516L50.5232 19.124C51.6032 19.892 52.8752 20.528 54.3392 21.032C55.8272 21.512 57.3272 21.752 58.8392 21.752C59.9912 21.752 60.9152 21.644 61.6112 21.428C62.3312 21.188 62.8592 20.864 63.1952 20.456C63.5312 20.048 63.6992 19.58 63.6992 19.052C63.6992 18.38 63.4352 17.852 62.9072 17.468C62.3792 17.06 61.6832 16.736 60.8192 16.496C59.9552 16.232 58.9952 15.992 57.9392 15.776C56.9072 15.536 55.8632 15.248 54.8072 14.912C53.7752 14.576 52.8272 14.144 51.9632 13.616C51.0992 13.088 50.3912 12.392 49.8392 11.528C49.3112 10.664 49.0472 9.56 49.0472 8.216C49.0472 6.776 49.4312 5.468 50.1992 4.292C50.9912 3.092 52.1672 2.144 53.7272 1.448C55.3112 0.727999 57.2912 0.368 59.6672 0.368C61.2512 0.368 62.8112 0.559999 64.3472 0.943999C65.8832 1.304 67.2392 1.856 68.4152 2.6L66.6152 7.028C65.4392 6.356 64.2632 5.864 63.0872 5.552C61.9112 5.216 60.7592 5.048 59.6312 5.048C58.5032 5.048 57.5792 5.18 56.8592 5.444C56.1392 5.708 55.6232 6.056 55.3112 6.488C54.9992 6.896 54.8432 7.376 54.8432 7.928C54.8432 8.576 55.1072 9.104 55.6352 9.512C56.1632 9.896 56.8592 10.208 57.7232 10.448C58.5872 10.688 59.5352 10.928 60.5672 11.168C61.6232 11.408 62.6672 11.684 63.6992 11.996C64.7552 12.308 65.7152 12.728 66.5792 13.256C67.4432 13.784 68.1392 14.48 68.6672 15.344C69.2192 16.208 69.4952 17.3 69.4952 18.62C69.4952 20.036 69.0992 21.332 68.3072 22.508C67.5152 23.684 66.3272 24.632 64.7432 25.352C63.1832 26.072 61.2032 26.432 58.8032 26.432ZM90.7602 0.799998H96.5922V26H90.7602V0.799998ZM79.3122 26H73.4802V0.799998H79.3122V26ZM91.1922 15.668H78.8802V10.736H91.1922V15.668ZM102.554 26V0.799998H108.386V26H102.554ZM126.607 26.432C124.615 26.432 122.767 26.108 121.063 25.46C119.383 24.812 117.919 23.9 116.671 22.724C115.447 21.548 114.487 20.168 113.791 18.584C113.119 17 112.783 15.272 112.783 13.4C112.783 11.528 113.119 9.8 113.791 8.216C114.487 6.632 115.459 5.252 116.707 4.076C117.955 2.9 119.419 1.988 121.099 1.34C122.779 0.691999 124.603 0.368 126.571 0.368C128.563 0.368 130.387 0.691999 132.043 1.34C133.723 1.988 135.175 2.9 136.399 4.076C137.647 5.252 138.619 6.632 139.315 8.216C140.011 9.776 140.359 11.504 140.359 13.4C140.359 15.272 140.011 17.012 139.315 18.62C138.619 20.204 137.647 21.584 136.399 22.76C135.175 23.912 133.723 24.812 132.043 25.46C130.387 26.108 128.575 26.432 126.607 26.432ZM126.571 21.464C127.699 21.464 128.731 21.272 129.667 20.888C130.627 20.504 131.467 19.952 132.187 19.232C132.907 18.512 133.459 17.66 133.843 16.676C134.251 15.692 134.455 14.6 134.455 13.4C134.455 12.2 134.251 11.108 133.843 10.124C133.459 9.14 132.907 8.288 132.187 7.568C131.491 6.848 130.663 6.296 129.703 5.912C128.743 5.528 127.699 5.336 126.571 5.336C125.443 5.336 124.399 5.528 123.439 5.912C122.503 6.296 121.675 6.848 120.955 7.568C120.235 8.288 119.671 9.14 119.263 10.124C118.879 11.108 118.687 12.2 118.687 13.4C118.687 14.576 118.879 15.668 119.263 16.676C119.671 17.66 120.223 18.512 120.919 19.232C121.639 19.952 122.479 20.504 123.439 20.888C124.399 21.272 125.443 21.464 126.571 21.464ZM144.742 26V0.799998H149.566L164.434 18.944H162.094V0.799998H167.854V26H163.066L148.162 7.856H150.502V26H144.742Z" fill="white"/>
</svg>
